<svg width="39" height="39" viewBox="0 0 39 39" fill="none" xmlns="http://www.w3.org/2000/svg">
<path d="M38.0781 0.28125H0.921875C0.751971 0.28125 0.589025 0.348744 0.468885 0.468885C0.348744 0.589025 0.28125 0.751971 0.28125 0.921875V32.3125C0.28125 32.4824 0.348744 32.6453 0.468885 32.7655C0.589025 32.8856 0.751971 32.9531 0.921875 32.9531H25.9389C26.1046 34.5873 26.8916 36.0954 28.1375 37.1659C29.3833 38.2364 30.9927 38.7874 32.6332 38.7052C34.2737 38.623 35.82 37.9137 36.9525 36.724C38.085 35.5343 38.7173 33.9551 38.7188 32.3125V0.921875C38.7188 0.751971 38.6513 0.589025 38.5311 0.468885C38.411 0.348744 38.248 0.28125 38.0781 0.28125ZM32.3125 37.4375C31.2989 37.4375 30.308 37.1369 29.4652 36.5738C28.6224 36.0106 27.9655 35.2102 27.5776 34.2738C27.1897 33.3373 27.0882 32.3068 27.286 31.3127C27.4837 30.3185 27.9718 29.4053 28.6886 28.6886C29.4053 27.9718 30.3185 27.4837 31.3127 27.286C32.3068 27.0882 33.3373 27.1897 34.2738 27.5776C35.2102 27.9655 36.0106 28.6224 36.5738 29.4652C37.1369 30.308 37.4375 31.2989 37.4375 32.3125C37.436 33.6713 36.8955 34.9739 35.9347 35.9347C34.9739 36.8955 33.6713 37.436 32.3125 37.4375ZM26.773 29.1094H20.7812V7.96875H34.875V26.445C33.4336 25.812 31.8092 25.7339 30.3138 26.2257C28.8183 26.7175 27.5574 27.7445 26.773 29.1094ZM37.4375 28.4854C37.073 27.9987 36.6417 27.5658 36.1562 27.1997V7.32812C36.1562 7.15822 36.0888 6.99527 35.9686 6.87513C35.8485 6.75499 35.6855 6.6875 35.5156 6.6875H20.1406C19.9707 6.6875 19.8078 6.75499 19.6876 6.87513C19.5675 6.99527 19.5 7.15822 19.5 7.32812V29.75C19.5 29.9199 19.5675 30.0828 19.6876 30.203C19.8078 30.3231 19.9707 30.3906 20.1406 30.3906H26.2016C26.07 30.8075 25.982 31.2369 25.9389 31.6719H1.5625V5.40625H37.4375V28.4854ZM37.4375 4.125H1.5625V1.5625H37.4375V4.125Z" fill="#4628A4"/>
</svg>
